<?xml version="1.0" encoding="UTF-8" standalone="no"?>
<!DOCTYPE svg PUBLIC "-//W3C//DTD SVG 1.1//EN" "http://www.w3.org/Graphics/SVG/1.1/DTD/svg11.dtd">
<svg xmlns="http://www.w3.org/2000/svg" version="1.1" viewBox="0.00 0.00 156.00 157.00">
<path fill="#0c1111" d="
  M 112.92 92.42
  L 112.90 104.85
  Q 112.90 107.11 110.65 107.11
  L 98.14 107.14
  Q 97.55 107.15 97.55 107.74
  L 97.54 129.44
  A 0.95 0.95 0.0 0 0 98.11 130.31
  Q 105.25 133.37 103.69 140.48
  Q 103.22 142.59 101.03 144.35
  C 95.67 148.65 87.70 144.71 87.90 138.05
  Q 88.00 134.76 91.12 131.67
  A 1.85 1.85 0.0 0 1 92.17 131.16
  Q 93.40 130.98 94.14 130.02
  Q 94.42 129.65 94.42 129.18
  L 94.44 107.55
  A 0.39 0.39 0.0 0 0 94.05 107.16
  L 71.96 107.16
  A 0.63 0.62 -90.0 0 0 71.34 107.79
  L 71.31 129.52
  Q 71.31 130.04 71.76 130.30
  C 72.40 130.68 73.11 130.78 73.75 131.19
  C 82.53 136.88 75.42 149.79 66.06 145.24
  Q 62.94 143.72 62.04 140.00
  Q 60.71 134.59 65.87 131.17
  C 66.64 130.66 68.18 130.59 68.18 129.26
  Q 68.20 118.14 68.20 107.60
  A 0.45 0.45 0.0 0 0 67.75 107.15
  L 55.01 107.15
  A 2.14 2.13 90.0 0 1 52.88 105.01
  L 52.90 92.22
  A 0.44 0.44 0.0 0 0 52.46 91.78
  L 34.05 91.78
  A 0.92 0.92 0.0 0 0 33.13 92.70
  L 33.05 116.31
  Q 33.05 116.84 33.44 117.19
  C 34.01 117.69 35.06 117.77 35.81 118.27
  C 40.15 121.19 40.91 126.67 37.37 130.52
  C 33.81 134.40 27.16 133.63 24.52 128.97
  C 21.88 124.29 24.45 119.01 29.42 117.34
  A 0.62 0.62 0.0 0 0 29.85 116.75
  L 29.83 90.56
  A 1.92 1.92 0.0 0 1 31.75 88.64
  L 52.49 88.65
  A 0.39 0.38 -90.0 0 0 52.87 88.26
  L 52.89 66.09
  A 0.35 0.35 0.0 0 0 52.54 65.74
  L 32.18 65.74
  A 2.33 2.33 0.0 0 1 29.85 63.41
  L 29.85 37.72
  Q 29.85 37.21 29.37 37.02
  Q 22.14 34.13 23.91 27.05
  C 25.09 22.33 30.35 19.98 34.79 21.94
  C 41.12 24.72 41.50 34.72 34.04 36.73
  A 1.36 1.35 82.5 0 0 33.04 38.04
  L 33.05 62.04
  A 0.49 0.49 0.0 0 0 33.54 62.53
  L 52.32 62.51
  Q 52.90 62.51 52.90 61.94
  L 52.87 49.51
  Q 52.87 47.27 55.11 47.26
  L 67.56 47.26
  A 0.64 0.63 -0.5 0 0 68.19 46.63
  Q 68.22 35.70 68.20 25.00
  Q 68.20 23.63 66.85 23.59
  Q 66.28 23.57 65.80 23.25
  Q 61.65 20.53 61.78 15.80
  C 61.90 11.51 65.20 8.40 69.51 8.22
  C 75.83 7.95 79.45 14.35 76.85 19.84
  Q 75.43 22.85 72.34 23.66
  A 1.36 1.35 83.0 0 0 71.33 24.96
  L 71.30 46.89
  A 0.34 0.34 0.0 0 0 71.64 47.23
  L 93.71 47.23
  A 0.70 0.70 0.0 0 0 94.41 46.53
  L 94.45 24.73
  A 0.91 0.91 0.0 0 0 93.69 23.82
  C 91.13 23.40 88.67 20.25 88.14 18.20
  C 86.73 12.76 91.33 7.78 96.80 8.28
  C 105.37 9.07 106.87 21.39 98.14 23.75
  A 0.83 0.81 -8.1 0 0 97.54 24.53
  L 97.54 46.51
  A 0.72 0.72 0.0 0 0 98.26 47.23
  L 110.99 47.22
  A 1.90 1.89 89.8 0 1 112.88 49.11
  L 112.90 61.72
  A 0.82 0.82 0.0 0 0 113.72 62.54
  L 131.58 62.50
  A 1.09 1.08 0.0 0 0 132.67 61.42
  L 132.70 37.97
  Q 132.70 37.45 132.26 37.17
  C 131.30 36.57 130.08 36.36 129.24 35.63
  Q 126.87 33.57 126.31 30.76
  C 124.61 22.17 136.49 17.43 141.07 25.25
  C 143.69 29.71 141.49 35.73 136.33 36.95
  A 0.80 0.80 0.0 0 0 135.72 37.73
  L 135.71 63.64
  A 2.10 2.10 0.0 0 1 133.61 65.74
  L 113.45 65.73
  Q 112.87 65.73 112.87 66.31
  L 112.91 88.03
  A 0.64 0.64 0.0 0 0 113.55 88.67
  L 134.18 88.65
  A 1.53 1.53 0.0 0 1 135.71 90.18
  L 135.70 116.53
  A 0.91 0.91 0.0 0 0 136.34 117.40
  C 141.06 118.85 143.26 122.96 141.76 127.60
  Q 140.00 133.04 133.75 132.96
  C 124.85 132.84 123.26 120.03 131.94 117.52
  A 1.04 1.04 0.0 0 0 132.69 116.52
  L 132.69 92.24
  A 0.46 0.45 90.0 0 0 132.24 91.78
  L 113.58 91.76
  Q 112.92 91.76 112.92 92.42
  Z
  M 74.65 16.20
  A 4.86 4.86 0.0 0 0 69.79 11.34
  A 4.86 4.86 0.0 0 0 64.93 16.20
  A 4.86 4.86 0.0 0 0 69.79 21.06
  A 4.86 4.86 0.0 0 0 74.65 16.20
  Z
  M 100.84 16.21
  A 4.87 4.87 0.0 0 0 95.97 11.34
  A 4.87 4.87 0.0 0 0 91.10 16.21
  A 4.87 4.87 0.0 0 0 95.97 21.08
  A 4.87 4.87 0.0 0 0 100.84 16.21
  Z
  M 36.45 29.24
  A 4.89 4.89 0.0 0 0 31.56 24.35
  A 4.89 4.89 0.0 0 0 26.67 29.24
  A 4.89 4.89 0.0 0 0 31.56 34.13
  A 4.89 4.89 0.0 0 0 36.45 29.24
  Z
  M 139.10 29.27
  A 4.87 4.87 0.0 0 0 134.23 24.40
  A 4.87 4.87 0.0 0 0 129.36 29.27
  A 4.87 4.87 0.0 0 0 134.23 34.14
  A 4.87 4.87 0.0 0 0 139.10 29.27
  Z
  M 109.70 51.05
  A 0.55 0.55 0.0 0 0 109.15 50.50
  L 56.67 50.50
  A 0.55 0.55 0.0 0 0 56.12 51.05
  L 56.12 103.41
  A 0.55 0.55 0.0 0 0 56.67 103.96
  L 109.15 103.96
  A 0.55 0.55 0.0 0 0 109.70 103.41
  L 109.70 51.05
  Z
  M 36.42 125.03
  A 4.86 4.86 0.0 0 0 31.56 120.17
  A 4.86 4.86 0.0 0 0 26.70 125.03
  A 4.86 4.86 0.0 0 0 31.56 129.89
  A 4.86 4.86 0.0 0 0 36.42 125.03
  Z
  M 139.08 125.10
  A 4.87 4.87 0.0 0 0 134.21 120.23
  A 4.87 4.87 0.0 0 0 129.34 125.10
  A 4.87 4.87 0.0 0 0 134.21 129.97
  A 4.87 4.87 0.0 0 0 139.08 125.10
  Z
  M 74.67 138.11
  A 4.89 4.89 0.0 0 0 69.78 133.22
  A 4.89 4.89 0.0 0 0 64.89 138.11
  A 4.89 4.89 0.0 0 0 69.78 143.00
  A 4.89 4.89 0.0 0 0 74.67 138.11
  Z
  M 100.89 138.10
  A 4.88 4.88 0.0 0 0 96.01 133.22
  A 4.88 4.88 0.0 0 0 91.13 138.10
  A 4.88 4.88 0.0 0 0 96.01 142.98
  A 4.88 4.88 0.0 0 0 100.89 138.10
  Z"
/>
</svg>
