<?xml version="1.0" encoding="UTF-8" standalone="no"?>
<!DOCTYPE svg PUBLIC "-//W3C//DTD SVG 1.1//EN" "http://www.w3.org/Graphics/SVG/1.1/DTD/svg11.dtd">
<svg xmlns="http://www.w3.org/2000/svg" version="1.1" viewBox="0.00 0.00 277.00 160.00">
<g stroke-width="2.00" fill="none" stroke-linecap="butt">
<path stroke="#2b4674" vector-effect="non-scaling-stroke" d="
  M 95.82 28.91
  Q 95.78 30.93 94.93 33.02"
/>
<path stroke="#2b4674" vector-effect="non-scaling-stroke" d="
  M 81.95 33.19
  L 86.02 28.88"
/>
<path stroke="#4e6d7f" vector-effect="non-scaling-stroke" d="
  M 105.25 86.37
  Q 65.23 86.14 24.00 86.48
  Q 23.19 86.49 23.42 86.87"
/>
<path stroke="#7f6834" vector-effect="non-scaling-stroke" d="
  M 57.54 28.92
  L 60.07 33.11"
/>
<path stroke="#7f6834" vector-effect="non-scaling-stroke" d="
  M 42.03 33.00
  L 44.78 28.94"
/>
<path stroke="#4e6d7f" vector-effect="non-scaling-stroke" d="
  M 118.27 94.10
  Q 116.92 94.90 115.25 94.92
  Q 96.34 95.08 77.43 94.75
  Q 77.16 94.75 77.11 94.48
  Q 77.07 94.30 76.97 94.18"
/>
<path stroke="#4e6d7f" vector-effect="non-scaling-stroke" d="
  M 51.59 94.16
  Q 51.02 94.79 50.50 94.80
  Q 36.03 95.07 14.00 94.98
  Q 12.46 94.98 10.78 94.28"
/>
</g>
<path fill="#5166ae" d="
  M 95.82 28.91
  Q 95.78 30.93 94.93 33.02
  C 93.06 39.85 86.99 44.66 80.82 47.76
  Q 72.58 51.89 64.46 55.31
  Q 58.79 57.69 52.69 61.68
  Q 43.40 67.75 39.14 77.87
  Q 38.87 78.52 38.88 77.82
  Q 39.22 57.88 55.91 47.48
  Q 60.02 44.92 72.96 38.71
  Q 75.27 37.60 81.95 33.19
  L 86.02 28.88
  Q 90.31 23.77 90.77 16.36
  Q 91.13 10.40 90.10 4.93
  A 0.05 0.05 0.0 0 1 90.20 4.90
  C 93.49 12.22 96.39 20.62 95.82 28.91
  Z"
/>
<path fill="#f8aa2e" d="
  M 57.54 28.92
  L 60.07 33.11
  C 61.60 37.73 59.40 42.73 55.09 44.65
  C 48.89 47.42 42.66 43.42 41.69 36.98
  Q 41.56 36.09 42.03 33.00
  L 44.78 28.94
  Q 50.94 24.34 57.54 28.92
  Z"
/>
<path fill="#257cc0" d="
  M 215.91 41.51
  C 220.75 39.23 220.18 33.93 219.96 29.41
  A 1.24 1.23 -10.9 0 1 220.80 28.18
  Q 235.23 23.29 245.00 33.87
  Q 249.67 38.93 249.94 45.89
  Q 249.97 46.58 249.27 46.58
  L 237.23 46.48
  Q 236.66 46.47 236.52 45.92
  Q 234.69 38.82 227.49 39.35
  C 225.21 39.52 222.97 41.28 222.18 43.44
  Q 219.31 51.22 228.08 54.42
  Q 233.04 56.23 237.77 58.09
  C 245.86 61.27 251.24 67.71 251.61 76.67
  C 251.95 84.97 248.23 92.08 241.30 96.48
  C 227.13 105.47 206.45 96.66 205.91 79.09
  Q 205.90 78.47 206.52 78.47
  L 218.97 78.46
  Q 219.58 78.46 219.59 79.07
  C 219.80 89.65 236.71 90.68 238.39 79.83
  C 240.22 68.00 224.73 67.47 217.84 63.18
  C 211.04 58.95 207.12 50.85 208.85 42.68
  A 0.66 0.66 0.0 0 1 209.59 42.16
  Q 213.37 42.70 215.91 41.51
  Z"
/>
<path fill="#257cc0" d="
  M 157.87 28.93
  C 168.88 30.61 177.34 35.80 182.51 45.96
  Q 190.72 62.09 183.86 77.87
  C 178.81 89.49 168.82 96.97 156.06 97.81
  Q 144.50 98.58 130.95 98.17
  A 0.60 0.59 1.0 0 1 130.37 97.58
  Q 130.47 67.44 130.42 36.42
  C 130.42 31.31 134.26 27.80 139.25 27.70
  Q 148.53 27.50 157.87 28.93
  Z
  M 143.51 41.05
  L 143.51 85.31
  A 0.38 0.38 0.0 0 0 143.89 85.69
  L 151.29 85.69
  A 22.60 22.29 0.0 0 0 173.89 63.40
  L 173.89 62.96
  A 22.60 22.29 -0.0 0 0 151.29 40.67
  L 143.89 40.67
  A 0.38 0.38 0.0 0 0 143.51 41.05
  Z"
/>
<path fill="#257cc0" d="
  M 194.03 85.57
  L 203.79 85.59
  Q 204.39 85.59 204.60 86.15
  Q 207.21 93.28 213.49 97.68
  Q 214.30 98.25 213.31 98.25
  L 180.82 98.25
  A 0.68 0.68 0.0 0 1 180.14 97.57
  L 180.08 88.97
  Q 180.07 88.24 180.54 87.69
  Q 192.20 73.94 189.43 56.87
  Q 187.78 46.76 180.55 38.27
  A 2.11 2.08 25.5 0 1 180.05 36.89
  C 180.16 31.33 183.80 27.69 189.25 27.71
  Q 204.47 27.78 217.40 27.75
  Q 218.13 27.74 218.08 28.48
  Q 217.92 31.00 218.08 33.80
  C 218.31 37.86 215.91 40.43 211.88 40.44
  Q 202.22 40.46 193.83 40.42
  A 0.58 0.58 0.0 0 0 193.25 41.00
  L 193.24 55.97
  Q 193.24 56.71 193.97 56.71
  L 208.01 56.70
  Q 208.61 56.70 208.89 57.24
  Q 211.55 62.29 216.52 65.25
  Q 217.01 65.54 217.01 66.10
  L 217.01 68.76
  Q 217.01 69.29 216.48 69.29
  L 193.72 69.30
  Q 193.24 69.30 193.24 69.78
  L 193.24 84.78
  Q 193.24 85.57 194.03 85.57
  Z"
/>
<path fill="#05253a" d="
  M 44.78 28.94
  L 42.03 33.00
  L 26.49 33.06
  Q 26.00 33.06 26.00 33.55
  L 26.00 82.25
  Q 26.00 83.00 26.75 83.00
  L 103.50 83.00
  Q 104.00 83.00 104.00 82.50
  L 104.00 33.54
  Q 104.00 33.07 103.52 33.06
  L 94.93 33.02
  Q 95.78 30.93 95.82 28.91
  L 105.12 28.90
  A 1.34 1.34 0.0 0 1 106.46 30.24
  Q 106.46 57.99 106.49 85.50
  Q 106.49 86.22 105.25 86.37
  Q 65.23 86.14 24.00 86.48
  Q 23.19 86.49 23.42 86.87
  Q 22.48 85.96 22.48 85.50
  Q 22.46 57.75 22.49 30.28
  Q 22.49 28.87 23.90 28.88
  L 44.78 28.94
  Z"
/>
<path fill="#05253a" d="
  M 86.02 28.88
  L 81.95 33.19
  L 60.07 33.11
  L 57.54 28.92
  L 86.02 28.88
  Z"
/>
<path fill="#f8aa2e" d="
  M 46.06 70.60
  Q 45.22 71.03 45.76 70.26
  C 48.44 66.41 52.92 63.84 57.27 62.07
  Q 66.51 58.31 74.97 54.81
  C 82.03 51.89 88.69 47.91 93.19 41.55
  Q 94.66 39.45 93.78 41.86
  Q 90.27 51.38 81.30 56.40
  C 78.47 57.98 75.22 59.56 72.09 60.48
  Q 57.91 64.66 46.06 70.60
  Z"
/>
<path fill="#5166ae" d="
  M 59.63 67.38
  Q 68.09 64.85 77.25 62.23
  Q 77.78 62.07 77.71 62.62
  Q 76.31 73.28 67.14 79.25
  Q 65.53 80.29 63.65 80.26
  Q 57.60 80.17 52.35 80.27
  Q 51.47 80.29 51.97 79.56
  C 54.06 76.57 55.15 73.85 54.70 69.98
  Q 54.63 69.37 55.19 69.10
  Q 57.36 68.06 59.63 67.38
  Z"
/>
<path fill="#97b4c3" d="
  M 105.25 86.37
  L 118.27 94.10
  Q 116.92 94.90 115.25 94.92
  Q 96.34 95.08 77.43 94.75
  Q 77.16 94.75 77.11 94.48
  Q 77.07 94.30 76.97 94.18
  Q 76.81 93.62 75.49 93.60
  Q 64.44 93.43 53.38 93.56
  Q 52.31 93.57 51.59 94.16
  Q 51.02 94.79 50.50 94.80
  Q 36.03 95.07 14.00 94.98
  Q 12.46 94.98 10.78 94.28
  Q 10.82 92.92 12.62 92.07
  Q 18.03 89.52 23.42 86.87
  Q 23.19 86.49 24.00 86.48
  Q 65.23 86.14 105.25 86.37
  Z"
/>
<path fill="#05253a" d="
  M 10.78 94.28
  Q 12.46 94.98 14.00 94.98
  Q 36.03 95.07 50.50 94.80
  Q 51.02 94.79 51.59 94.16
  Q 53.68 94.68 55.70 96.03
  A 1.47 1.45 -27.7 0 0 56.52 96.28
  L 72.55 96.27
  A 0.68 0.68 0.0 0 0 72.87 96.19
  L 76.97 94.18
  Q 77.07 94.30 77.11 94.48
  Q 77.16 94.75 77.43 94.75
  Q 96.34 95.08 115.25 94.92
  Q 116.92 94.90 118.27 94.10
  Q 118.59 94.52 119.51 94.89
  Q 120.09 95.13 120.10 95.76
  L 120.14 98.52
  A 1.39 1.39 0.0 0 1 118.75 99.93
  L 10.22 99.92
  A 1.45 1.45 0.0 0 1 8.77 98.48
  L 8.75 96.04
  Q 8.75 95.47 9.17 95.08
  Q 9.91 94.40 10.78 94.28
  Z"
/>
<circle fill="#0c0f0b" cx="23.06" cy="108.07" r="1.04"/>
<circle fill="#0c0f0b" cx="38.07" cy="108.06" r="1.06"/>
<rect fill="#0c0f0b" x="58.00" y="107.12" width="2.00" height="17.88" rx="0.77"/>
<path fill="#0c0f0b" d="
  M 220.36 109.04
  Q 220.01 109.29 219.66 108.11
  A 0.76 0.73 -32.4 0 1 219.83 107.41
  Q 220.76 106.39 221.50 107.54
  A 0.87 0.87 0.0 0 1 221.52 108.45
  Q 221.05 109.24 220.60 109.02
  Q 220.47 108.96 220.36 109.04
  Z"
/>
<path fill="#0c0f0b" d="
  M 10.83 108.79
  A 0.44 0.44 0.0 0 1 11.27 108.35
  L 15.80 108.36
  A 3.96 3.73 -89.9 0 1 19.53 112.33
  L 19.51 120.41
  A 3.96 3.73 -89.9 0 1 15.78 124.36
  L 11.25 124.35
  A 0.44 0.44 0.0 0 1 10.81 123.91
  L 10.83 108.79
  Z
  M 12.60 110.43
  L 12.60 122.35
  A 0.47 0.47 0.0 0 0 13.07 122.82
  L 15.55 122.82
  A 3.01 2.21 -90.0 0 0 17.76 119.81
  L 17.76 112.97
  A 3.01 2.21 90.0 0 0 15.55 109.96
  L 13.07 109.96
  A 0.47 0.47 0.0 0 0 12.60 110.43
  Z"
/>
<path fill="#0c0f0b" d="
  M 69.07 115.50
  L 73.49 115.49
  A 0.32 0.32 0.0 0 1 73.81 115.80
  L 73.84 116.70
  A 0.32 0.32 0.0 0 1 73.52 117.03
  L 69.07 117.03
  A 0.32 0.32 0.0 0 0 68.75 117.35
  L 68.75 122.50
  A 0.32 0.32 0.0 0 0 69.07 122.82
  L 74.18 122.79
  A 0.32 0.32 0.0 0 1 74.51 123.10
  L 74.55 124.00
  A 0.32 0.32 0.0 0 1 74.23 124.34
  L 67.31 124.36
  A 0.32 0.32 0.0 0 1 66.99 124.04
  L 66.98 108.67
  A 0.32 0.32 0.0 0 1 67.30 108.35
  L 74.36 108.37
  A 0.32 0.32 0.0 0 1 74.68 108.74
  L 74.51 109.73
  A 0.32 0.32 0.0 0 1 74.20 110.00
  L 69.07 109.99
  A 0.32 0.32 0.0 0 0 68.75 110.31
  L 68.75 115.18
  A 0.32 0.32 0.0 0 0 69.07 115.50
  Z"
/>
<path fill="#0c0f0b" d="
  M 197.25 119.03
  Q 197.25 117.10 195.32 117.03
  Q 191.42 116.88 190.88 115.19
  C 190.25 113.21 190.28 109.15 192.99 108.46
  Q 195.18 107.91 197.84 108.38
  A 0.79 0.78 7.7 0 1 198.48 109.21
  L 198.45 109.55
  Q 198.41 110.01 197.95 109.95
  C 194.99 109.56 191.57 109.08 192.36 113.73
  A 1.58 1.57 0.5 0 0 193.63 115.02
  L 197.11 115.66
  A 2.18 2.17 1.3 0 1 198.89 117.51
  C 199.79 124.03 197.50 125.20 191.41 124.33
  Q 190.89 124.26 190.92 123.74
  L 190.95 123.28
  Q 190.98 122.80 191.46 122.83
  L 194.90 123.04
  Q 197.24 123.19 197.24 120.85
  L 197.25 119.03
  Z"
/>
<path fill="#0c0f0b" d="
  M 44.88 112.53
  Q 45.45 112.39 45.96 112.58
  A 0.64 0.63 -56.0 0 1 46.16 113.64
  Q 45.63 114.12 44.95 114.02
  Q 44.17 113.91 44.17 114.69
  L 44.21 123.78
  Q 44.21 124.28 43.72 124.32
  L 43.12 124.37
  Q 42.50 124.42 42.50 123.80
  L 42.51 114.73
  Q 42.51 113.95 41.72 113.98
  Q 41.46 113.99 41.22 113.91
  Q 40.64 113.74 40.75 113.16
  Q 40.88 112.37 41.72 112.47
  Q 42.50 112.56 42.50 111.77
  L 42.50 109.50
  Q 42.50 109.00 43.00 109.00
  L 43.73 109.00
  Q 44.20 109.00 44.20 109.48
  L 44.19 111.98
  A 0.56 0.56 0.0 0 0 44.88 112.53
  Z"
/>
<path fill="#0c0f0b" d="
  M 180.53 113.96
  L 179.62 113.79
  A 0.56 0.53 76.3 0 1 179.28 113.57
  Q 178.86 113.01 179.43 112.66
  Q 179.60 112.56 179.78 112.54
  Q 180.01 112.51 180.23 112.57
  A 0.61 0.61 0.0 0 0 181.01 111.98
  L 181.00 109.51
  A 0.49 0.49 0.0 0 1 181.49 109.02
  L 182.26 109.03
  Q 182.74 109.04 182.74 109.51
  L 182.73 111.98
  A 0.52 0.51 -89.4 0 0 183.23 112.50
  L 184.25 112.53
  Q 184.93 112.54 184.90 113.22
  Q 184.89 113.40 184.79 113.55
  Q 184.60 113.81 184.29 113.86
  L 183.31 114.00
  Q 182.71 114.09 182.71 114.69
  L 182.75 123.78
  Q 182.75 124.49 182.04 124.45
  L 181.66 124.43
  A 0.71 0.70 -88.3 0 1 181.00 123.72
  L 181.01 114.53
  A 0.59 0.58 5.4 0 0 180.53 113.96
  Z"
/>
<path fill="#0c0f0b" d="
  M 237.11 112.51
  Q 237.76 112.44 238.38 112.66
  Q 239.15 112.94 238.56 113.50
  Q 238.08 113.97 237.39 113.91
  A 0.81 0.81 0.0 0 0 236.52 114.72
  L 236.53 123.93
  Q 236.53 124.40 236.07 124.38
  L 235.49 124.36
  Q 234.88 124.33 234.88 123.73
  L 234.88 114.61
  Q 234.88 114.08 234.35 114.00
  L 233.53 113.87
  Q 233.16 113.81 233.03 113.46
  Q 232.97 113.30 232.98 113.14
  Q 233.02 112.49 233.68 112.51
  L 234.27 112.53
  Q 234.91 112.56 234.90 111.92
  L 234.86 109.71
  Q 234.85 109.01 235.55 108.99
  L 235.93 108.98
  Q 236.53 108.96 236.53 109.56
  L 236.52 111.97
  Q 236.52 112.57 237.11 112.51
  Z"
/>
<path fill="#0c0f0b" d="
  M 32.35 123.52
  C 30.52 125.14 27.06 124.97 26.63 122.00
  Q 25.99 117.63 26.91 113.80
  Q 27.04 113.27 27.50 112.97
  Q 30.15 111.26 32.41 113.45
  Q 32.76 113.80 32.86 113.31
  Q 32.98 112.69 33.54 112.40
  A 0.49 0.49 0.0 0 1 34.26 112.83
  Q 34.36 118.97 34.23 125.25
  C 34.14 129.61 30.44 128.98 27.47 128.97
  Q 26.80 128.97 26.79 128.30
  L 26.79 127.96
  Q 26.78 127.54 27.21 127.53
  L 31.27 127.43
  A 1.11 1.10 3.4 0 0 32.33 126.50
  L 32.75 123.74
  Q 32.86 123.07 32.35 123.52
  Z
  M 32.63 115.90
  A 2.02 2.02 0.0 0 0 30.61 113.88
  L 30.09 113.88
  A 2.02 2.02 0.0 0 0 28.07 115.90
  L 28.07 120.96
  A 2.02 2.02 0.0 0 0 30.09 122.98
  L 30.61 122.98
  A 2.02 2.02 0.0 0 0 32.63 120.96
  L 32.63 115.90
  Z"
/>
<path fill="#0c0f0b" d="
  M 52.94 123.66
  C 50.11 125.78 46.99 124.43 47.16 120.65
  Q 47.34 116.77 51.73 117.69
  Q 53.41 118.04 53.25 116.33
  L 53.16 115.33
  Q 53.00 113.60 51.26 113.74
  L 48.47 113.98
  A 0.68 0.66 78.8 0 1 47.77 113.50
  Q 47.70 113.25 47.79 113.01
  Q 47.93 112.64 48.32 112.55
  C 50.92 111.96 54.79 111.78 54.93 115.36
  Q 55.10 119.55 54.95 123.80
  A 0.65 0.64 84.0 0 1 54.47 124.40
  Q 53.71 124.61 53.53 123.88
  A 0.38 0.38 0.0 0 0 52.94 123.66
  Z
  M 53.29 120.04
  A 0.94 0.94 0.0 0 0 52.36 118.93
  L 49.89 118.96
  A 0.94 0.94 0.0 0 0 48.96 119.91
  L 49.00 122.11
  A 0.94 0.94 0.0 0 0 49.96 123.03
  L 52.01 122.98
  A 0.94 0.94 0.0 0 0 52.91 122.20
  L 53.29 120.04
  Z"
/>
<path fill="#0c0f0b" d="
  M 78.58 113.56
  Q 81.53 110.88 84.08 113.60
  A 0.34 0.34 0.0 0 0 84.63 113.51
  Q 85.08 112.57 86.11 112.40
  Q 89.94 111.77 89.98 115.43
  Q 90.04 119.44 89.98 123.89
  Q 89.98 124.38 89.49 124.40
  L 89.17 124.42
  Q 88.37 124.47 88.36 123.67
  L 88.32 115.36
  Q 88.31 113.91 86.86 113.89
  L 86.32 113.89
  Q 84.27 113.87 84.26 115.92
  L 84.25 123.80
  Q 84.24 124.34 83.70 124.36
  L 83.14 124.37
  Q 82.58 124.39 82.57 123.83
  L 82.56 115.51
  Q 82.55 113.66 80.72 113.90
  Q 80.56 113.92 80.40 113.94
  Q 78.56 114.12 78.55 115.97
  L 78.51 123.81
  A 0.58 0.57 -89.5 0 1 77.94 124.38
  L 77.49 124.37
  Q 76.85 124.37 76.85 123.74
  L 76.83 112.98
  Q 76.83 112.62 77.17 112.50
  Q 77.33 112.45 77.49 112.45
  Q 78.04 112.45 78.18 112.99
  L 78.30 113.48
  Q 78.37 113.76 78.58 113.56
  Z"
/>
<path fill="#0c0f0b" d="
  M 94.48 123.76
  L 94.52 128.45
  A 0.49 0.48 -1.2 0 1 94.05 128.93
  L 93.46 128.95
  A 0.56 0.56 0.0 0 1 92.88 128.39
  L 92.85 113.07
  Q 92.85 112.36 93.55 112.45
  Q 94.23 112.54 94.24 113.21
  Q 94.24 113.91 94.74 113.42
  Q 96.55 111.65 99.01 112.60
  A 2.25 2.22 -85.3 0 1 100.40 114.26
  C 100.81 116.31 101.67 123.43 98.85 124.34
  Q 96.58 125.06 94.89 123.58
  Q 94.48 123.21 94.48 123.76
  Z
  M 99.0310 115.7145
  A 1.85 1.85 0.0 0 0 97.1682 113.8775
  L 96.4082 113.8828
  A 1.85 1.85 0.0 0 0 94.5711 115.7456
  L 94.6090 121.1655
  A 1.85 1.85 0.0 0 0 96.4718 123.0025
  L 97.2318 122.9972
  A 1.85 1.85 0.0 0 0 99.0689 121.1344
  L 99.0310 115.7145
  Z"
/>
<path fill="#0c0f0b" d="
  M 110.97 121.49
  A 3.03 3.03 0.0 0 1 107.94 124.52
  L 106.02 124.52
  A 3.03 3.03 0.0 0 1 102.99 121.49
  L 102.99 115.35
  A 3.03 3.03 0.0 0 1 106.02 112.32
  L 107.94 112.32
  A 3.03 3.03 0.0 0 1 110.97 115.35
  L 110.97 121.49
  Z
  M 109.2549 115.5060
  A 1.72 1.72 0.0 0 0 107.5319 113.7890
  L 106.3719 113.7910
  A 1.72 1.72 0.0 0 0 104.6549 115.5140
  L 104.6651 121.3140
  A 1.72 1.72 0.0 0 0 106.3881 123.0310
  L 107.5481 123.0290
  A 1.72 1.72 0.0 0 0 109.2651 121.3060
  L 109.2549 115.5060
  Z"
/>
<path fill="#0c0f0b" d="
  M 118.61 116.77
  Q 117.90 119.97 117.26 123.26
  Q 117.14 123.86 116.72 124.24
  Q 115.99 124.89 115.12 124.16
  A 0.93 0.90 -77.6 0 1 114.80 123.64
  L 112.41 113.03
  Q 112.27 112.37 112.94 112.44
  L 113.34 112.48
  A 0.98 0.98 0.0 0 1 114.20 113.25
  L 115.80 121.18
  Q 116.07 122.47 116.33 121.18
  L 117.97 113.03
  A 0.85 0.83 -0.1 0 1 118.63 112.38
  Q 119.70 112.18 119.92 113.09
  Q 120.86 117.08 121.51 120.49
  Q 121.91 122.61 122.33 120.49
  L 123.81 113.06
  Q 123.91 112.53 124.44 112.49
  L 125.00 112.46
  Q 125.60 112.41 125.47 113.00
  L 123.04 123.75
  Q 122.93 124.27 122.41 124.40
  Q 121.79 124.56 121.24 124.30
  Q 120.79 124.09 120.69 123.61
  L 119.30 116.78
  Q 118.97 115.18 118.61 116.77
  Z"
/>
<path fill="#0c0f0b" d="
  M 129.57 119.00
  Q 128.37 119.00 128.56 120.19
  L 128.84 121.88
  Q 129.04 123.07 130.25 123.05
  L 134.02 122.99
  Q 134.30 122.98 134.30 123.27
  L 134.29 123.98
  Q 134.29 124.27 134.00 124.31
  C 131.48 124.73 127.46 125.26 127.09 121.66
  Q 126.80 118.84 126.98 115.45
  C 127.13 112.55 129.78 111.95 132.35 112.43
  C 134.95 112.91 134.74 116.29 134.73 118.28
  Q 134.72 119.00 134.00 119.00
  L 129.57 119.00
  Z
  M 129.11 117.73
  L 132.45 117.77
  A 0.55 0.55 0.0 0 0 133.00 117.22
  L 133.02 115.74
  A 1.99 1.76 -89.4 0 0 131.28 113.73
  L 130.36 113.73
  A 1.99 1.76 -89.4 0 0 128.58 115.70
  L 128.56 117.18
  A 0.55 0.55 0.0 0 0 129.11 117.73
  Z"
/>
<path fill="#0c0f0b" d="
  M 139.17 113.86
  Q 139.95 112.59 141.19 112.27
  Q 141.95 112.07 141.98 112.85
  L 142.00 113.24
  Q 142.04 113.97 141.31 114.08
  Q 138.86 114.47 138.94 117.67
  Q 139.01 121.06 138.92 123.85
  Q 138.91 124.33 138.43 124.41
  L 138.09 124.46
  A 0.79 0.79 0.0 0 1 137.17 123.67
  Q 137.22 118.19 137.19 113.20
  Q 137.18 112.40 138.02 112.43
  Q 138.70 112.45 138.73 113.12
  L 138.75 113.76
  Q 138.79 114.49 139.17 113.86
  Z"
/>
<path fill="#0c0f0b" d="
  M 145.76 113.49
  Q 148.32 110.94 150.93 113.48
  Q 151.38 113.91 151.68 113.37
  C 151.95 112.90 152.45 112.57 152.96 112.43
  C 155.90 111.65 157.12 113.54 157.06 116.12
  Q 156.95 120.41 156.99 123.84
  Q 157.00 124.36 156.48 124.42
  L 156.19 124.45
  A 0.79 0.79 0.0 0 1 155.31 123.67
  L 155.30 115.31
  Q 155.30 113.85 153.84 113.87
  L 153.29 113.88
  Q 151.26 113.91 151.26 115.94
  L 151.24 123.81
  Q 151.24 124.37 150.69 124.36
  L 150.08 124.36
  Q 149.56 124.35 149.56 123.83
  L 149.55 115.25
  Q 149.55 113.69 148.00 113.84
  L 147.53 113.88
  Q 145.52 114.07 145.52 116.09
  L 145.50 123.85
  Q 145.50 124.46 144.89 124.40
  L 144.44 124.36
  Q 143.82 124.31 143.82 123.69
  L 143.81 112.94
  Q 143.81 112.56 144.18 112.47
  Q 144.36 112.43 144.56 112.45
  Q 145.10 112.52 145.23 113.03
  Q 145.27 113.17 145.27 113.30
  Q 145.30 113.95 145.76 113.49
  Z"
/>
<path fill="#0c0f0b" d="
  M 161.75 119.00
  Q 161.00 119.00 161.09 119.75
  L 161.39 122.05
  A 1.15 1.14 -3.9 0 0 162.54 123.04
  L 166.52 123.00
  Q 166.93 122.99 166.95 123.41
  L 166.97 123.68
  Q 166.99 124.16 166.53 124.26
  C 163.79 124.87 159.88 125.10 159.59 121.37
  C 159.40 118.93 158.84 113.46 161.45 112.63
  Q 164.68 111.60 166.64 113.46
  A 1.29 1.26 20.5 0 1 167.04 114.31
  L 167.30 118.45
  Q 167.33 119.00 166.79 119.00
  L 161.75 119.00
  Z
  M 161.53 117.74
  L 165.27 117.72
  A 0.38 0.38 0.0 0 0 165.65 117.34
  L 165.64 115.84
  A 2.10 1.63 89.7 0 0 164.00 113.75
  L 162.76 113.75
  A 2.10 1.63 89.7 0 0 161.14 115.86
  L 161.15 117.36
  A 0.38 0.38 0.0 0 0 161.53 117.74
  Z"
/>
<path fill="#0c0f0b" d="
  M 171.85 113.41
  C 173.63 111.60 177.30 111.82 177.41 115.00
  Q 177.56 119.51 177.48 123.89
  Q 177.47 124.36 177.00 124.36
  L 176.33 124.36
  A 0.53 0.53 0.0 0 1 175.80 123.83
  L 175.78 115.54
  Q 175.77 113.52 173.79 113.84
  L 173.36 113.91
  Q 171.48 114.21 171.48 116.11
  L 171.47 123.93
  Q 171.47 124.34 171.06 124.34
  L 170.20 124.36
  Q 169.78 124.37 169.78 123.95
  L 169.78 112.92
  Q 169.78 112.52 170.19 112.46
  Q 170.32 112.44 170.47 112.45
  Q 170.96 112.49 171.14 112.89
  Q 171.20 113.03 171.22 113.19
  Q 171.29 113.97 171.85 113.41
  Z"
/>
<path fill="#0c0f0b" d="
  M 209.0362 121.4991
  A 3.00 3.00 0.0 0 1 206.0519 124.5147
  L 204.0720 124.5251
  A 3.00 3.00 0.0 0 1 201.0563 121.5408
  L 201.0238 115.3409
  A 3.00 3.00 0.0 0 1 204.0081 112.3253
  L 205.9880 112.3149
  A 3.00 3.00 0.0 0 1 209.0037 115.2992
  L 209.0362 121.4991
  Z
  M 207.3697 115.4620
  A 1.68 1.68 0.0 0 0 205.6839 113.7879
  L 204.4439 113.7922
  A 1.68 1.68 0.0 0 0 202.7698 115.4780
  L 202.7903 121.3580
  A 1.68 1.68 0.0 0 0 204.4761 123.0321
  L 205.7161 123.0278
  A 1.68 1.68 0.0 0 0 207.3902 121.3420
  L 207.3697 115.4620
  Z"
/>
<path fill="#0c0f0b" d="
  M 214.29 122.93
  Q 215.57 123.20 217.06 122.92
  A 0.41 0.40 84.0 0 1 217.54 123.31
  L 217.55 123.82
  A 0.46 0.46 0.0 0 1 217.20 124.28
  C 210.24 126.02 211.08 120.25 211.35 115.92
  Q 211.65 110.98 217.40 112.67
  A 0.30 0.29 -78.5 0 1 217.61 112.99
  L 217.54 113.42
  A 0.68 0.68 0.0 0 1 216.68 113.98
  Q 213.15 112.95 213.02 116.05
  Q 212.91 118.49 213.04 121.45
  A 1.60 1.59 -85.3 0 0 214.29 122.93
  Z"
/>
<path fill="#0c0f0b" d="
  M 226.47 119.00
  Q 225.43 119.00 225.58 120.03
  L 225.87 121.87
  A 1.42 1.42 0.0 0 0 227.30 123.07
  L 231.05 123.00
  Q 231.40 122.99 231.39 123.34
  L 231.38 123.84
  Q 231.37 124.27 230.95 124.33
  C 228.13 124.76 224.25 125.22 224.04 121.14
  C 223.84 117.10 222.70 111.23 229.50 112.43
  Q 231.07 112.71 231.33 114.28
  Q 231.79 117.00 231.86 117.42
  Q 232.13 119.00 230.52 119.00
  L 226.47 119.00
  Z
  M 226.20 117.74
  L 229.48 117.76
  A 0.55 0.55 0.0 0 0 230.03 117.22
  L 230.04 115.66
  A 1.89 1.78 -89.6 0 0 228.27 113.75
  L 227.45 113.75
  A 1.89 1.78 -89.6 0 0 225.66 115.62
  L 225.65 117.18
  A 0.55 0.55 0.0 0 0 226.20 117.74
  Z"
/>
<rect fill="#0c0f0b" x="-0.91" y="-5.95" transform="translate(23.08,118.44) rotate(-0.1)" width="1.82" height="11.90" rx="0.61"/>
<rect fill="#0c0f0b" x="37.19" y="112.50" width="1.80" height="11.92" rx="0.64"/>
<rect fill="#0c0f0b" x="219.76" y="112.49" width="1.70" height="11.86" rx="0.42"/>
<path fill="#0c0f0b" d="
  M 246.21 125.88
  Q 246.34 125.15 246.54 124.44
  Q 246.96 122.94 245.64 123.77
  C 242.31 125.87 240.31 123.74 240.41 120.40
  Q 240.52 116.45 240.45 113.03
  Q 240.44 112.48 241.00 112.49
  L 241.53 112.49
  Q 242.05 112.50 242.05 113.03
  L 242.10 121.17
  Q 242.11 123.24 244.17 123.01
  L 244.70 122.95
  Q 246.41 122.77 246.42 121.05
  L 246.49 112.99
  Q 246.50 112.48 247.01 112.48
  L 247.55 112.49
  Q 248.06 112.50 248.07 113.01
  Q 248.20 122.91 247.99 125.74
  C 247.73 129.23 244.34 129.15 241.38 128.97
  Q 240.77 128.94 240.76 128.33
  L 240.75 128.02
  A 0.50 0.49 -1.1 0 1 241.25 127.51
  L 244.23 127.52
  Q 245.90 127.52 246.21 125.88
  Z"
/>
</svg>
