<svg version="1.1" xmlns="http://www.w3.org/2000/svg" xmlns:xlink="http://www.w3.org/1999/xlink" x="0px" y="0px" viewBox="0 0 256 256" enable-background="new 0 0 256 256" xml:space="preserve">
  <metadata> Svg Vector Icons : http://www.onlinewebfonts.com/icon </metadata>
  <g>
    <g>
      <g>
        <path fill="#000000" d="M147.7,28.6c-13.8,2.6-26.5,10.5-34.9,21.8c-3.1,4.2-7.2,12.4-8.6,17.4c-8.9,31.4,10.4,63.3,42.6,70.2c4.6,1,15.3,1.1,20.1,0.2c22.4-4,40.1-20.9,44.9-43.1c2.6-12,1.1-24.7-4.4-35.9c-7.3-14.8-20.1-25.3-36.3-29.6c-3.8-1-5.7-1.3-12.1-1.4C153.6,28,150.3,28.1,147.7,28.6z M162.4,43.5c0.1,0.4,0.3,2.5,0.3,4.6v3.9l2,0.5c2.7,0.7,4.4,1.4,6.3,2.5c4.3,2.4,9.2,9,7.8,10.3c-0.5,0.5-9.7,3.5-10.7,3.5c-0.1,0-0.9-0.7-1.9-1.5c-2.1-1.9-4.4-2.6-8.8-2.6c-4.5,0-6.8,0.7-8.6,2.5c-1.2,1.2-1.5,1.9-1.5,3.2c0,4.4,2.8,6.2,10.7,6.8c7.4,0.5,11.9,2,15.9,5.3c6,4.9,8,14.4,4.4,21.6c-2.5,5.1-7.3,8.7-13.5,10.2l-2.3,0.6l-0.1,4.4l-0.1,4.4h-4.9h-4.9l-0.1-4.4l-0.1-4.4l-2.3-0.6c-5.5-1.3-10.2-4.6-13-8.9c-1.3-2.1-1.6-3.5-0.8-4c0.8-0.5,9.5-3,10.5-3c0.6,0,1.3,0.4,1.5,0.9c0.3,0.5,1.5,1.4,2.7,1.9c1.8,0.9,3,1.1,6.4,1.1c3.5,0,4.5-0.2,6.5-1.2c4.1-2.1,5-5.9,2.1-8.8c-1.6-1.6-3.7-2.2-10.3-2.7c-6.1-0.5-9.8-1.7-13.3-4.1c-5.7-3.9-8.5-10.4-7.5-17.6c1.1-7.4,6.3-12.9,14.7-15.2l2.9-0.8v-4.3c0-2.3,0.1-4.4,0.3-4.5c0.1-0.2,2.3-0.3,4.8-0.3C161.3,42.7,162.2,42.9,162.4,43.5z"/>
        <path fill="#000000" d="M71.7,139.7c-4.4,0.9-9,3.1-13.9,6.4C40.3,158,10.1,179.2,10,179.8c-0.1,0.9,24,35.8,24.9,36c0.4,0,4.8-2.7,9.7-6.2c10.6-7.4,12.8-8.3,19.1-8c3.7,0.2,5.2,0.7,38.8,13.1c37.2,13.8,38,14,42.5,12.7c2.7-0.7,94.7-64.2,97.8-67.4c4.5-4.8,4.3-12.5-0.5-17.3c-3.5-3.6-9.3-4.7-13.7-2.7c-1.2,0.5-15,9.8-30.7,20.7l-28.5,19.8l0.1,3.1c0.6,12.4-9.8,22-21.9,20.3c-2.3-0.3-6.8-2.4-26.6-12.3c-15.6-7.8-24-12.3-24.5-13c-0.9-1.4-0.3-3.3,1.4-4.3c1.2-0.7,1.7-0.5,25.1,11.2c17.7,8.8,24.4,12,26.1,12.2c7,0.9,14-5.2,14-12.4c0-3.3-1-6.1-3.1-8.6c-1.4-1.8-3.8-3.1-23-12.7c-11.8-5.9-26.8-13.5-33.4-16.9c-9.9-5-12.8-6.3-16.3-7.1C82.5,138.9,76.1,138.8,71.7,139.7z"/>
      </g>
    </g>
  </g>
</svg>
